<svg width="20" height="20" viewBox="0 0 20 20" fill="none" xmlns="http://www.w3.org/2000/svg">
<path d="M17.0313 9.25781H5.60354L12.4434 3.32031C12.5528 3.22461 12.4864 3.04688 12.3418 3.04688H10.6133C10.5371 3.04688 10.4649 3.07422 10.4082 3.12305L3.02737 9.52734C2.95977 9.58594 2.90555 9.65838 2.8684 9.73976C2.83124 9.82115 2.81201 9.90956 2.81201 9.99902C2.81201 10.0885 2.83124 10.1769 2.8684 10.2583C2.90555 10.3397 2.95977 10.4121 3.02737 10.4707L10.4512 16.9141C10.4805 16.9395 10.5157 16.9531 10.5528 16.9531H12.3399C12.4844 16.9531 12.5508 16.7734 12.4414 16.6797L5.60354 10.7422H17.0313C17.1172 10.7422 17.1875 10.6719 17.1875 10.5859V9.41406C17.1875 9.32812 17.1172 9.25781 17.0313 9.25781Z" fill="#383F51"/>
</svg>
